<svg xmlns="http://www.w3.org/2000/svg" version="1.1" xmlns:xlink="http://www.w3.org/1999/xlink" xmlns:svgjs="http://svgjs.dev/svgjs" width="1500" height="333" viewBox="0 0 1500 333"><g transform="matrix(1,0,0,1,-0.9090909090908781,0.3761408905906478)"><svg viewBox="0 0 396 88" data-background-color="#303c54" preserveAspectRatio="xMidYMid meet" height="333" width="1500" xmlns="http://www.w3.org/2000/svg" xmlns:xlink="http://www.w3.org/1999/xlink"><g id="tight-bounds" transform="matrix(1,0,0,1,0.2400000000000091,-0.09940059571164284)"><svg viewBox="0 0 395.52 88.19864993260681" height="88.19864993260681" width="395.52"><g><svg viewBox="0 0 540.232953694992 120.46879339857098" height="88.19864993260681" width="395.52"><g transform="matrix(1,0,0,1,144.71295369499202,34.5602914361276)"><svg viewBox="0 0 395.52 51.34821052631579" height="51.34821052631579" width="395.52"><g id="textblocktransform"><svg viewBox="0 0 395.52 51.34821052631579" height="51.34821052631579" width="395.52" id="textblock"><g><svg viewBox="0 0 395.52 51.34821052631579" height="51.34821052631579" width="395.52"><g transform="matrix(1,0,0,1,0,0)"><svg width="395.52" viewBox="4.25 -36.5 284.98 37" height="51.34821052631579" data-palette-color="#ffffff"><path d="M39.45 0L34.95 0 34.95-27.1 23.25-6.25 20.5-6.25 8.75-27.1 8.75 0 4.25 0 4.25-35.5 9-35.5 21.85-12.45 34.75-35.5 39.45-35.5 39.45 0ZM51.65 0L47.25 0 47.25-26.1 51.65-26.1 51.65 0ZM51.65-31L47.25-31 47.25-36.5 51.65-36.5 51.65-31ZM81.9 0L77.15 0 68.1-12.7 63.15-8.05 63.15 0 58.75 0 58.75-36.5 63.15-36.5 63.15-12.65 76.65-26.05 81.4-26.05 71-15.25 81.9 0ZM99.49-26.25L99.49-22.25Q96.19-22.2 93.67-20.58 91.14-18.95 90.09-16.1L90.09-16.1 90.09 0 85.69 0 85.69-26.1 89.79-26.1 89.79-20.05Q91.14-22.75 93.37-24.43 95.59-26.1 98.04-26.3L98.04-26.3Q98.54-26.3 98.89-26.3 99.24-26.3 99.49-26.25L99.49-26.25ZM114.64 0.5L114.64 0.5Q111.69 0.5 109.29-0.58 106.89-1.65 105.14-3.53 103.39-5.4 102.44-7.85 101.49-10.3 101.49-13L101.49-13Q101.49-15.75 102.44-18.2 103.39-20.65 105.14-22.53 106.89-24.4 109.32-25.48 111.74-26.55 114.69-26.55L114.69-26.55Q117.59-26.55 119.99-25.48 122.39-24.4 124.17-22.53 125.94-20.65 126.89-18.2 127.84-15.75 127.84-13L127.84-13Q127.84-10.3 126.89-7.85 125.94-5.4 124.19-3.53 122.44-1.65 120.02-0.58 117.59 0.5 114.64 0.5ZM105.99-12.95L105.99-12.95Q105.99-10.25 107.17-8.05 108.34-5.85 110.29-4.58 112.24-3.3 114.64-3.3L114.64-3.3Q117.04-3.3 119.02-4.6 120.99-5.9 122.17-8.13 123.34-10.35 123.34-13.05L123.34-13.05Q123.34-15.75 122.17-17.95 120.99-20.15 119.02-21.45 117.04-22.75 114.64-22.75L114.64-22.75Q112.24-22.75 110.29-21.43 108.34-20.1 107.17-17.9 105.99-15.7 105.99-12.95ZM149.59-19.85L143.44-35.3 147.69-35.3 152.39-22.95 157.14-35.3 161.39-35.3 155.24-19.85 161.34-5.2 173.34-35.5 178.24-35.5 163.39 0 159.49 0 152.44-16.75 145.34 0 141.44 0 126.64-35.5 131.49-35.5 143.54-5.2 149.59-19.85ZM186.59 0L182.19 0 182.19-26.1 186.59-26.1 186.59 0ZM186.59-31L182.19-31 182.19-36.5 186.59-36.5 186.59-31ZM191.63 0L191.63-2.85 208.08-22.9 192.08-22.9 192.08-26.1 213.03-26.1 213.03-23.25 196.68-3.2 213.08-3.2 213.08 0 191.63 0ZM216.28-7.55L216.28-7.55Q216.28-10.05 217.71-11.88 219.13-13.7 221.63-14.7 224.13-15.7 227.43-15.7L227.43-15.7Q229.18-15.7 231.13-15.43 233.08-15.15 234.58-14.6L234.58-14.6 234.58-16.5Q234.58-19.5 232.78-21.23 230.98-22.95 227.68-22.95L227.68-22.95Q225.53-22.95 223.56-22.18 221.58-21.4 219.38-19.95L219.38-19.95 217.78-23.05Q220.33-24.8 222.88-25.68 225.43-26.55 228.18-26.55L228.18-26.55Q233.18-26.55 236.08-23.78 238.98-21 238.98-16.05L238.98-16.05 238.98-5Q238.98-4.2 239.31-3.83 239.63-3.45 240.38-3.4L240.38-3.4 240.38 0Q239.73 0.1 239.26 0.15 238.78 0.2 238.48 0.2L238.48 0.2Q236.93 0.2 236.16-0.65 235.38-1.5 235.28-2.45L235.28-2.45 235.18-4.1Q233.48-1.9 230.73-0.7 227.98 0.5 225.28 0.5L225.28 0.5Q222.68 0.5 220.63-0.58 218.58-1.65 217.43-3.48 216.28-5.3 216.28-7.55ZM233.28-5.7L233.28-5.7Q233.88-6.4 234.23-7.13 234.58-7.85 234.58-8.35L234.58-8.35 234.58-11.6Q233.03-12.2 231.33-12.53 229.63-12.85 227.98-12.85L227.98-12.85Q224.63-12.85 222.56-11.53 220.48-10.2 220.48-7.9L220.48-7.9Q220.48-6.65 221.16-5.48 221.83-4.3 223.16-3.55 224.48-2.8 226.43-2.8L226.43-2.8Q228.48-2.8 230.33-3.63 232.18-4.45 233.28-5.7ZM259.83-26.25L259.83-22.25Q256.53-22.2 254-20.58 251.48-18.95 250.43-16.1L250.43-16.1 250.43 0 246.03 0 246.03-26.1 250.13-26.1 250.13-20.05Q251.48-22.75 253.7-24.43 255.93-26.1 258.38-26.3L258.38-26.3Q258.88-26.3 259.23-26.3 259.58-26.3 259.83-26.25L259.83-26.25ZM262.03-13L262.03-13Q262.03-16.7 263.55-19.78 265.08-22.85 267.75-24.7 270.43-26.55 273.88-26.55L273.88-26.55Q277.03-26.55 279.53-24.9 282.03-23.25 283.43-20.9L283.43-20.9 283.43-36.5 287.83-36.5 287.83-5Q287.83-4.2 288.15-3.83 288.48-3.45 289.23-3.4L289.23-3.4 289.23 0Q287.98 0.2 287.28 0.2L287.28 0.2Q285.98 0.2 285-0.7 284.03-1.6 284.03-2.7L284.03-2.7 284.03-4.9Q282.48-2.4 279.88-0.95 277.28 0.5 274.48 0.5L274.48 0.5Q271.78 0.5 269.5-0.58 267.23-1.65 265.55-3.55 263.88-5.45 262.95-7.88 262.03-10.3 262.03-13ZM283.43-9.15L283.43-9.15 283.43-16.65Q282.83-18.35 281.48-19.73 280.13-21.1 278.45-21.93 276.78-22.75 275.13-22.75L275.13-22.75Q273.18-22.75 271.6-21.93 270.03-21.1 268.9-19.73 267.78-18.35 267.18-16.6 266.58-14.85 266.58-12.95L266.58-12.95Q266.58-11 267.25-9.25 267.93-7.5 269.15-6.15 270.38-4.8 272-4.05 273.63-3.3 275.53-3.3L275.53-3.3Q276.73-3.3 278-3.75 279.28-4.2 280.43-5 281.58-5.8 282.38-6.88 283.18-7.95 283.43-9.15Z" opacity="1" transform="matrix(1,0,0,1,0,0)" fill="#ffffff" class="wordmark-text-0" data-fill-palette-color="primary" id="text-0"></path></svg></g></svg></g></svg></g></svg></g><g><svg viewBox="0 0 120.46879339857098 120.46879339857098" height="120.46879339857098" width="120.46879339857098"><g><svg></svg></g><g id="icon-0"><svg viewBox="0 0 120.46879339857098 120.46879339857098" height="120.46879339857098" width="120.46879339857098"><g><path d="M0 60.234c0-33.267 26.968-60.234 60.234-60.234 33.267 0 60.234 26.968 60.235 60.234 0 33.267-26.968 60.234-60.235 60.235-33.267 0-60.234-26.968-60.234-60.235zM60.234 115.838c30.709 0 55.604-24.895 55.604-55.604 0-30.709-24.895-55.604-55.604-55.603-30.709 0-55.604 24.895-55.603 55.603 0 30.709 24.895 55.604 55.603 55.604z" data-fill-palette-color="accent" fill="#ffffff" stroke="transparent"></path></g><g transform="matrix(1,0,0,1,30.6907190943025,29.558553080679275)"><svg viewBox="0 0 59.08735520996598 61.35168723721243" height="61.35168723721243" width="59.08735520996598"><g><svg xmlns="http://www.w3.org/2000/svg" xmlns:xlink="http://www.w3.org/1999/xlink" version="1.1" x="0" y="0" viewBox="5.021 3.2976884753539752 89.95700007173657 93.40431152464602" enable-background="new 0 0 100 100" xml:space="preserve" height="61.35168723721243" width="59.08735520996598" class="icon-cg-0" data-fill-palette-color="accent" id="cg-0"><path d="M68.84 60.533c0.076 2.981 0.114 6.083 0.114 9.313 0 5.141-5.936 9.197-13.67 9.5-0.473 3.237-3.26 5.735-6.627 5.735-3.37 0-6.159-2.502-6.628-5.743-6.134-0.38-10.984-4.486-10.984-9.492 0-2.465 0.556-5.571 1.404-9.558C15.981 63.276 5.021 70.204 5.021 77.733c0 10.459 20.178 18.969 44.979 18.969 24.801 0 44.978-8.51 44.978-18.969C94.979 70.48 84.525 63.641 68.84 60.533z" fill="#ffffff" data-fill-palette-color="accent"></path><path d="M43.952 78.375c0 2.595 2.111 4.706 4.705 4.706 2.595 0 4.705-2.111 4.705-4.706s-2.11-4.705-4.705-4.705C46.063 73.67 43.952 75.78 43.952 78.375z" fill="#ffffff" data-fill-palette-color="accent"></path><path d="M66.954 69.846c0-21.581-1.365-51.52-13.173-62.317-3.342-3.056-7.277-4.431-12.013-4.208-0.095 24.441-3.928 41.787-6.475 53.313-1.256 5.688-2.249 10.18-2.249 13.212 0 3.918 3.959 7.143 8.996 7.494 0.5-3.206 3.272-5.67 6.617-5.67 3.347 0 6.121 2.468 6.618 5.678C61.792 77.065 66.954 73.813 66.954 69.846z" fill="#ffffff" data-fill-palette-color="accent"></path></svg></g></svg></g></svg></g></svg></g></svg></g><defs></defs></svg><rect width="395.52" height="88.19864993260681" fill="none" stroke="none" visibility="hidden"></rect></g></svg></g></svg>